<?xml version="1.0" encoding="UTF-8"?>
<svg version="1.0" viewBox="0 0 720 460" xmlns="http://www.w3.org/2000/svg">
 <path d="m43.680664 122.2793c0.200518 0.76562 0.649411 1.14843 1.34668 1.14843 0.697261 0 1.291987-0.38281 1.784179-1.14843 0.496739-0.76563 0.895502-1.9209 1.196289-3.46582 0.300775-1.54948 0.350905-2.70703 0.150391-3.47266-0.19597-0.76562-0.642584-1.14843-1.339844-1.14844-0.69727 1e-5 -1.294275 0.38282-1.791015 1.14844-0.492191 0.76563-0.888675 1.92318-1.189453 3.47266-0.300784 1.54492-0.353192 2.70019-0.157227 3.46582m1.209961 1.82519c-1.107424 0-1.882163-0.46484-2.324219-1.39453-0.4375-0.92968-0.494466-2.22851-0.170898-3.89648 0.323566-1.67252 0.886391-2.97363 1.688476-3.90332 0.806638-0.92968 1.763668-1.39452 2.871094-1.39453 1.111973 1e-5 1.886712 0.46485 2.324219 1.39453 0.437492 0.92969 0.494458 2.2308 0.170898 3.90332-0.323575 1.66797-0.8864 2.9668-1.688476 3.89648-0.802089 0.92969-1.759119 1.39453-2.871094 1.39453m-4.279297-10.40429-0.21875 1.12109h-4.675781l-0.567383 2.92578c0.268877-0.16406 0.569658-0.2871 0.902344-0.36914 0.332678-0.082 0.694983-0.12304 1.086914-0.12305 1.102859 1e-5 1.914056 0.30535 2.433594 0.91602 0.519523 0.61068 0.67675 1.44466 0.471679 2.50195-0.209642 1.08008-0.697272 1.92318-1.46289 2.5293-0.761073 0.60156-1.72494 0.90234-2.891602 0.90234-0.469404 0-0.938804-0.057-1.408203-0.1709-0.469402-0.11393-0.938803-0.28711-1.408203-0.51953l0.382812-1.98242h0.772461c-0.08659 0.64714 0.02278 1.1416 0.328125 1.4834 0.305337 0.3418 0.792966 0.51269 1.462891 0.51269 0.720048 0 1.319331-0.23697 1.797851-0.71093 0.483068-0.47396 0.811193-1.15527 0.984375-2.04395 0.168614-0.88411 0.107091-1.56087-0.18457-2.03027-0.291672-0.47395-0.79981-0.71093-1.524414-0.71094-0.41016 1e-5 -0.786136 0.0729-1.12793 0.21875-0.341799 0.14584-0.663088 0.37143-0.963867 0.67676h-0.58789l0.998046-5.12695h5.400391m-11.060547 10.14453c-0.13672-0.17774-0.180014-0.39421-0.129883-0.64942 0.05013-0.2552 0.177733-0.47168 0.382813-0.64941 0.209633-0.17773 0.444334-0.2666 0.704101-0.2666 0.250649 0 0.446612 0.0889 0.587891 0.2666 0.14583 0.17773 0.193682 0.39421 0.143555 0.64941-0.05013 0.25065-0.182295 0.46485-0.396485 0.64258-0.209638 0.17773-0.439781 0.2666-0.690429 0.2666-0.259768 0-0.460288-0.0866-0.601563-0.25976m-8.155273-1.56543c0.200518 0.76562 0.649411 1.14843 1.346679 1.14843 0.697262 0 1.291988-0.38281 1.78418-1.14843 0.496739-0.76563 0.895502-1.9209 1.196289-3.46582 0.300775-1.54948 0.350905-2.70703 0.150391-3.47266-0.19597-0.76562-0.642584-1.14843-1.339844-1.14844-0.69727 1e-5 -1.294275 0.38282-1.791016 1.14844-0.49219 0.76563-0.888674 1.92318-1.189453 3.47266-0.300783 1.54492-0.353192 2.70019-0.157226 3.46582m1.209961 1.82519c-1.107424 0-1.882163-0.46484-2.324219-1.39453-0.437501-0.92968-0.494467-2.22851-0.170898-3.89648 0.323566-1.67252 0.886391-2.97363 1.688476-3.90332 0.806637-0.92968 1.763668-1.39452 2.871094-1.39453 1.111972 1e-5 1.886711 0.46485 2.324219 1.39453 0.437491 0.92969 0.494457 2.2308 0.170898 3.90332-0.323575 1.66797-0.8864 2.9668-1.688477 3.89648-0.802088 0.92969-1.759119 1.39453-2.871093 1.39453m27.481933 124.59571-0.21875 1.12109h-4.675781l-0.567383 2.92578c0.268878-0.16406 0.569659-0.2871 0.902344-0.36914 0.332678-0.082 0.694983-0.12304 1.086914-0.12305 1.102859 1e-5 1.914056 0.30535 2.433594 0.91602 0.519524 0.61068 0.67675 1.44466 0.47168 2.50195-0.209643 1.08008-0.697273 1.92318-1.462891 2.5293-0.761073 0.60156-1.724939 0.90234-2.891602 0.90234-0.469403 0-0.938804-0.057-1.408203-0.1709-0.469402-0.11393-0.938803-0.28711-1.408203-0.51953l0.382813-1.98242h0.772461c-0.08659 0.64714 0.02278 1.1416 0.328125 1.4834 0.305336 0.3418 0.792966 0.51269 1.46289 0.51269 0.720048 0 1.319332-0.23697 1.797852-0.71093 0.483067-0.47396 0.811192-1.15527 0.984375-2.04395 0.168613-0.88411 0.10709-1.56087-0.184571-2.03027-0.291672-0.47395-0.799809-0.71093-1.524414-0.71094-0.41016 1e-5 -0.786136 0.0729-1.127929 0.21875-0.3418 0.14584-0.663089 0.37143-0.963868 0.67676h-0.58789l0.998047-5.12695h5.40039m-14.669922 2.43359h-0.765625l0.355469-1.81836c0.537758-0.25976 1.066404-0.458 1.585938-0.59473 0.524084-0.13671 1.023107-0.20506 1.49707-0.20508 1.061843 2e-5 1.850254 0.2575 2.365234 0.77247 0.514967 0.51498 0.685865 1.21452 0.512696 2.09863-0.191414 0.99805-1.121101 2.19206-2.789063 3.58203-0.127609 0.10482-0.225591 0.18457-0.293945 0.23926l-3.076172 2.57715h4.258789l0.246094-1.25782h0.799805l-0.464844 2.37891h-6.583008l0.143555-0.74512 3.698242-3.08984c0.81575-0.68359 1.424148-1.31022 1.825195-1.87988 0.405593-0.57422 0.669916-1.17578 0.792969-1.80469 0.132155-0.68814 0.05696-1.2259-0.225586-1.61328-0.282558-0.38736-0.738287-0.58105-1.367188-0.58106-0.651696 1e-5 -1.187178 0.1618-1.606445 0.48535-0.414716 0.32358-0.717776 0.80893-0.90918 1.45606m-5.304687 7.71094c-0.13672-0.17774-0.180014-0.39421-0.129883-0.64942 0.05013-0.2552 0.177733-0.47168 0.382813-0.64941 0.209633-0.17773 0.444333-0.2666 0.704101-0.2666 0.250649 0 0.446612 0.0889 0.587891 0.2666 0.14583 0.17773 0.193682 0.39421 0.143555 0.64941-0.05013 0.25065-0.182295 0.46485-0.396485 0.64258-0.209638 0.17773-0.439781 0.2666-0.69043 0.2666-0.259767 0-0.460288-0.0866-0.601562-0.25976m-8.155273-1.56543c0.200518 0.76562 0.649411 1.14843 1.346679 1.14843 0.697262 0 1.291988-0.38281 1.78418-1.14843 0.496739-0.76563 0.895501-1.9209 1.196289-3.46582 0.300774-1.54948 0.350905-2.70703 0.150391-3.47266-0.19597-0.76562-0.642585-1.14843-1.339844-1.14844-0.69727 1e-5 -1.294275 0.38282-1.791016 1.14844-0.49219 0.76563-0.888674 1.92318-1.189453 3.47266-0.300783 1.54492-0.353192 2.70019-0.157226 3.46582m1.20996 1.82519c-1.107424 0-1.882163-0.46484-2.324218-1.39453-0.437501-0.92968-0.494467-2.22851-0.170899-3.89648 0.323567-1.67252 0.886392-2.97363 1.688477-3.90332 0.806637-0.92968 1.763667-1.39452 2.871094-1.39454 1.111972 2e-5 1.886711 0.46486 2.324218 1.39454 0.437492 0.92969 0.494458 2.2308 0.170899 3.90332-0.323576 1.66797-0.886401 2.9668-1.688477 3.89648-0.802089 0.92969-1.759119 1.39453-2.871094 1.39453m-13.6650386-5.14062h8.7636716v1.10742h-8.7636716v-1.10742m34.1782226-221.684573c0.200518 0.765626 0.649411 1.148438 1.34668 1.148437 0.697261 1e-6 1.291987-0.382811 1.784179-1.148437 0.496739-0.765623 0.895502-1.920895 1.196289-3.46582 0.300775-1.549473 0.350905-2.707024 0.150391-3.472657-0.19597-0.765615-0.642584-1.148427-1.339844-1.148437-0.69727 1e-5 -1.294275 0.382822-1.791015 1.148437-0.492191 0.765633-0.888675 1.923184-1.189453 3.472657-0.300784 1.544925-0.353192 2.700197-0.157227 3.46582m1.209961 1.825195c-1.107424 0-1.882163-0.464843-2.324219-1.394531-0.4375-0.929685-0.494466-2.228512-0.170898-3.896484 0.323566-1.67252 0.886391-2.973625 1.688476-3.903321 0.806638-0.929677 1.763668-1.394521 2.871094-1.394531 1.111973 1e-5 1.886712 0.464854 2.324219 1.394531 0.437492 0.929696 0.494458 2.230801 0.170898 3.903321-0.323575 1.667972-0.8864 2.966799-1.688476 3.896484-0.802089 0.929688-1.759119 1.394531-2.871094 1.394531m-10.124023-1.825195c0.200518 0.765626 0.649411 1.148438 1.346679 1.148437 0.697262 1e-6 1.291988-0.382811 1.78418-1.148437 0.496739-0.765623 0.895502-1.920895 1.196289-3.46582 0.300774-1.549473 0.350905-2.707024 0.150391-3.472657-0.19597-0.765615-0.642585-1.148427-1.339844-1.148437-0.69727 1e-5 -1.294275 0.382822-1.791016 1.148437-0.49219 0.765633-0.888674 1.923184-1.189453 3.472657-0.300783 1.544925-0.353192 2.700197-0.157226 3.46582m1.20996 1.825195c-1.107424 0-1.882162-0.464843-2.324218-1.394531-0.437501-0.929685-0.494467-2.228512-0.170899-3.896484 0.323567-1.67252 0.886392-2.973625 1.688477-3.903321 0.806637-0.929677 1.763667-1.394521 2.871094-1.394531 1.111972 1e-5 1.886711 0.464854 2.324218 1.394531 0.437492 0.929696 0.494458 2.230801 0.170899 3.903321-0.323576 1.667972-0.886401 2.966799-1.688477 3.896484-0.802089 0.929688-1.759119 1.394531-2.871094 1.394531m-6.425781-0.259765c-0.13672-0.177735-0.180014-0.394206-0.129883-0.649415 0.05013-0.255207 0.177733-0.471678 0.382813-0.649414 0.209633-0.177732 0.444334-0.266599 0.704101-0.266601 0.250649 2e-6 0.446612 0.08887 0.587891 0.266601 0.14583 0.177736 0.193682 0.394207 0.143555 0.649414-0.05013 0.250652-0.182295 0.464844-0.396485 0.642579-0.209638 0.177734-0.439781 0.266601-0.690429 0.266601-0.259768 0-0.460288-0.08659-0.601563-0.259765m-9.385742 0.061523 0.143555-0.724609h1.777343l1.647461-8.490235-2.317382 1.333008 0.177734-0.895508 2.802734-1.613281h0.94336l-1.879883 9.666016h1.777344l-0.143555 0.724609h-4.928711m29.360352 34.793945-0.21875 1.121094h-4.675782l-0.567382 2.925781c0.268877-0.164056 0.569658-0.287103 0.902343-0.36914 0.332679-0.08203 0.694983-0.123041 1.086914-0.123047 1.102859 6e-6 1.914056 0.305345 2.433594 0.916015 0.519524 0.610683 0.67675 1.444666 0.47168 2.501954-0.209643 1.08008-0.697273 1.923178-1.462891 2.529296-0.761073 0.601563-1.724939 0.902344-2.891601 0.902344-0.469404 0-0.938805-0.05697-1.408204-0.170898-0.469402-0.113932-0.938802-0.287109-1.408203-0.519532l0.382813-1.982421h0.772461c-0.08659 0.647137 0.02278 1.141603 0.328125 1.483398 0.305336 0.341798 0.792966 0.512696 1.46289 0.512695 0.720049 1e-6 1.319332-0.236978 1.797852-0.710937 0.483067-0.473957 0.811192-1.155271 0.984375-2.043945 0.168614-0.884111 0.10709-1.560868-0.18457-2.030274-0.291673-0.473952-0.79981-0.710931-1.524414-0.710937-0.410161 6e-6 -0.786137 0.07292-1.12793 0.21875-0.3418 0.145839-0.663089 0.371424-0.963867 0.676757h-0.587891l0.998047-5.126953h5.400391m-8.216797 0.697266-5.837891 9.508789h-1.018555l5.571289-9.084961h-4.716796l-0.246094 1.257813h-0.799805l0.464844-2.378907h6.719726l-0.136718 0.697266m-11.757813 9.447266c-0.13672-0.177735-0.180014-0.394206-0.129883-0.649415 0.05013-0.255207 0.177733-0.471678 0.382813-0.649414 0.209633-0.177732 0.444334-0.266599 0.704101-0.266601 0.250649 2e-6 0.446612 0.08887 0.587891 0.266601 0.14583 0.177736 0.193682 0.394207 0.143555 0.649414-0.05013 0.250652-0.182295 0.464844-0.396485 0.642579-0.209638 0.177734-0.439781 0.266601-0.690429 0.266601-0.259768 0-0.460288-0.08659-0.601563-0.259765m-8.155273-1.56543c0.200518 0.765626 0.649411 1.148438 1.346679 1.148437 0.697262 1e-6 1.291988-0.382811 1.78418-1.148437 0.496739-0.765623 0.895502-1.920895 1.196289-3.46582 0.300775-1.549473 0.350905-2.707024 0.150391-3.472657-0.19597-0.765615-0.642584-1.148427-1.339844-1.148437-0.69727 1e-5 -1.294275 0.382822-1.791016 1.148437-0.49219 0.765633-0.888674 1.923184-1.189453 3.472657-0.300783 1.544925-0.353192 2.700197-0.157226 3.46582m1.209961 1.825195c-1.107424 0-1.882163-0.464843-2.324219-1.394531-0.437501-0.929685-0.494467-2.228512-0.170898-3.896484 0.323566-1.67252 0.886391-2.973625 1.688476-3.903321 0.806637-0.929677 1.763668-1.394521 2.871094-1.394531 1.111972 1e-5 1.886711 0.464854 2.324219 1.394531 0.437491 0.929696 0.494457 2.230801 0.170898 3.903321-0.323575 1.667972-0.8864 2.966799-1.688477 3.896484-0.802088 0.929688-1.759119 1.394531-2.871093 1.394531m21.075195 313.174808c0.200518 0.76562 0.649411 1.14843 1.34668 1.14843 0.697261 0 1.291987-0.38281 1.784179-1.14843 0.496739-0.76563 0.895502-1.9209 1.196289-3.46582 0.300775-1.54948 0.350905-2.70703 0.150391-3.47266-0.19597-0.76562-0.642584-1.14843-1.339844-1.14844-0.69727 1e-5 -1.294275 0.38282-1.791015 1.14844-0.492191 0.76563-0.888675 1.92318-1.189453 3.47266-0.300784 1.54492-0.353192 2.70019-0.157227 3.46582m1.209961 1.82519c-1.107424 0-1.882163-0.46484-2.324219-1.39453-0.4375-0.92968-0.494466-2.22851-0.170898-3.89648 0.323566-1.67252 0.886391-2.97363 1.688476-3.90332 0.806638-0.92968 1.763668-1.39452 2.871094-1.39454 1.111973 2e-5 1.886712 0.46486 2.324219 1.39454 0.437492 0.92969 0.494458 2.2308 0.170898 3.90332-0.323575 1.66797-0.8864 2.9668-1.688476 3.89648-0.802089 0.92969-1.759119 1.39453-2.871094 1.39453m-10.124023-1.82519c0.200518 0.76562 0.649411 1.14843 1.346679 1.14843 0.697262 0 1.291988-0.38281 1.78418-1.14843 0.496739-0.76563 0.895502-1.9209 1.196289-3.46582 0.300774-1.54948 0.350905-2.70703 0.150391-3.47266-0.19597-0.76562-0.642585-1.14843-1.339844-1.14844-0.69727 1e-5 -1.294275 0.38282-1.791016 1.14844-0.49219 0.76563-0.888674 1.92318-1.189453 3.47266-0.300783 1.54492-0.353192 2.70019-0.157226 3.46582m1.20996 1.82519c-1.107424 0-1.882162-0.46484-2.324218-1.39453-0.437501-0.92968-0.494467-2.22851-0.170899-3.89648 0.323567-1.67252 0.886392-2.97363 1.688477-3.90332 0.806637-0.92968 1.763667-1.39452 2.871094-1.39454 1.111972 2e-5 1.886711 0.46486 2.324218 1.39454 0.437492 0.92969 0.494458 2.2308 0.170899 3.90332-0.323576 1.66797-0.886401 2.9668-1.688477 3.89648-0.802089 0.92969-1.759119 1.39453-2.871094 1.39453m-6.425781-0.25976c-0.13672-0.17774-0.180014-0.39421-0.129883-0.64942 0.05013-0.2552 0.177733-0.47168 0.382813-0.64941 0.209633-0.17773 0.444334-0.2666 0.704101-0.2666 0.250649 0 0.446612 0.0889 0.587891 0.2666 0.14583 0.17773 0.193682 0.39421 0.143555 0.64941-0.05013 0.25065-0.182295 0.46485-0.396485 0.64258-0.209638 0.17773-0.439781 0.2666-0.690429 0.2666-0.259768 0-0.460288-0.0866-0.601563-0.25976m-9.385742 0.06152 0.143555-0.72461h1.777343l1.647461-8.49023-2.317382 1.333 0.177734-0.8955 2.802734-1.61329h0.94336l-1.879883 9.66602h1.777344l-0.143555 0.72461h-4.928711m-11.2246093-4.94238h8.7636723v1.10742h-8.7636723v-1.10742m40.5849613-50.26367-0.21875 1.12109h-4.675782l-0.567382 2.92578c0.268877-0.16406 0.569658-0.2871 0.902343-0.36914 0.332679-0.082 0.694983-0.12304 1.086914-0.12305 1.102859 1e-5 1.914056 0.30535 2.433594 0.91602 0.519524 0.61068 0.67675 1.44466 0.47168 2.50195-0.209643 1.08008-0.697273 1.92318-1.462891 2.5293-0.761073 0.60156-1.724939 0.90234-2.891601 0.90234-0.469404 0-0.938805-0.057-1.408204-0.1709-0.469402-0.11393-0.938802-0.28711-1.408203-0.51953l0.382813-1.98242h0.772461c-0.08659 0.64714 0.02278 1.1416 0.328125 1.4834 0.305336 0.3418 0.792966 0.51269 1.46289 0.51269 0.720049 0 1.319332-0.23697 1.797852-0.71093 0.483067-0.47396 0.811192-1.15527 0.984375-2.04395 0.168614-0.88411 0.10709-1.56087-0.18457-2.03027-0.291673-0.47395-0.79981-0.71093-1.524414-0.71094-0.410161 1e-5 -0.786137 0.0729-1.12793 0.21875-0.3418 0.14584-0.663089 0.37143-0.963867 0.67676h-0.587891l0.998047-5.12695h5.400391m-8.216797 0.69726-5.837891 9.50879h-1.018555l5.571289-9.08496h-4.716796l-0.246094 1.25781h-0.799805l0.464844-2.3789h6.719726l-0.136718 0.69726m-11.757813 9.44727c-0.13672-0.17774-0.180014-0.39421-0.129883-0.64942 0.05013-0.2552 0.177733-0.47168 0.382813-0.64941 0.209633-0.17773 0.444334-0.2666 0.704101-0.2666 0.250649 0 0.446612 0.0889 0.587891 0.2666 0.14583 0.17773 0.193682 0.39421 0.143555 0.64941-0.05013 0.25065-0.182295 0.46485-0.396485 0.64258-0.209638 0.17773-0.439781 0.2666-0.690429 0.2666-0.259768 0-0.460288-0.0866-0.601563-0.25976m-8.155273-1.56543c0.200518 0.76562 0.649411 1.14843 1.346679 1.14843 0.697262 0 1.291988-0.38281 1.78418-1.14843 0.496739-0.76563 0.895502-1.9209 1.196289-3.46582 0.300775-1.54948 0.350905-2.70703 0.150391-3.47266-0.19597-0.76562-0.642584-1.14843-1.339844-1.14844-0.69727 1e-5 -1.294275 0.38282-1.791016 1.14844-0.49219 0.76563-0.888674 1.92318-1.189453 3.47266-0.300783 1.54492-0.353192 2.70019-0.157226 3.46582m1.209961 1.82519c-1.107424 0-1.882163-0.46484-2.324219-1.39453-0.437501-0.92968-0.494467-2.22851-0.170898-3.89648 0.323566-1.67252 0.886391-2.97363 1.688476-3.90332 0.806637-0.92968 1.763668-1.39452 2.871094-1.39454 1.111972 2e-5 1.886711 0.46486 2.324219 1.39454 0.437491 0.92969 0.494457 2.2308 0.170898 3.90332-0.323575 1.66797-0.8864 2.9668-1.688477 3.89648-0.802088 0.92969-1.759119 1.39453-2.871093 1.39453m-13.6650393-5.14062h8.7636723v1.10742h-8.7636723v-1.10742m34.7402343-41.68457c0.200518 0.76562 0.649411 1.14843 1.34668 1.14843 0.697261 0 1.291987-0.38281 1.784179-1.14843 0.496739-0.76563 0.895502-1.9209 1.196289-3.46582 0.300775-1.54948 0.350905-2.70703 0.150391-3.47266-0.19597-0.76562-0.642584-1.14843-1.339844-1.14844-0.69727 1e-5 -1.294275 0.38282-1.791015 1.14844-0.492191 0.76563-0.888675 1.92318-1.189453 3.47266-0.300784 1.54492-0.353192 2.70019-0.157227 3.46582m1.209961 1.82519c-1.107424 0-1.882163-0.46484-2.324219-1.39453-0.4375-0.92968-0.494466-2.22851-0.170898-3.89648 0.323566-1.67252 0.886391-2.97363 1.688476-3.90332 0.806638-0.92968 1.763668-1.39452 2.871094-1.39454 1.111973 2e-5 1.886712 0.46486 2.324219 1.39454 0.437492 0.92969 0.494458 2.2308 0.170898 3.90332-0.323575 1.66797-0.8864 2.9668-1.688476 3.89648-0.802089 0.92969-1.759119 1.39453-2.871094 1.39453m-4.279297-10.40429-0.21875 1.12109h-4.675781l-0.567383 2.92578c0.268877-0.16406 0.569658-0.2871 0.902344-0.36914 0.332678-0.082 0.694983-0.12304 1.086914-0.12305 1.102859 1e-5 1.914056 0.30535 2.433594 0.91602 0.519523 0.61068 0.67675 1.44466 0.471679 2.50195-0.209642 1.08008-0.697272 1.92318-1.46289 2.5293-0.761073 0.60156-1.72494 0.90234-2.891602 0.90234-0.469404 0-0.938804-0.057-1.408203-0.1709-0.469402-0.11393-0.938803-0.28711-1.408203-0.51953l0.382812-1.98242h0.772461c-0.08659 0.64714 0.02278 1.1416 0.328125 1.4834 0.305337 0.3418 0.792966 0.51269 1.462891 0.51269 0.720048 0 1.319331-0.23697 1.797851-0.71093 0.483068-0.47396 0.811193-1.15527 0.984375-2.04395 0.168614-0.88411 0.107091-1.56087-0.18457-2.03027-0.291672-0.47395-0.79981-0.71093-1.524414-0.71094-0.41016 1e-5 -0.786136 0.0729-1.12793 0.21875-0.341799 0.14584-0.663088 0.37143-0.963867 0.67676h-0.58789l0.998046-5.12695h5.400391m-11.060547 10.14453c-0.13672-0.17774-0.180014-0.39421-0.129883-0.64942 0.05013-0.2552 0.177733-0.47168 0.382813-0.64941 0.209633-0.17773 0.444334-0.2666 0.704101-0.2666 0.250649 0 0.446612 0.0889 0.587891 0.2666 0.14583 0.17773 0.193682 0.39421 0.143555 0.64941-0.05013 0.25065-0.182295 0.46485-0.396485 0.64258-0.209638 0.17773-0.439781 0.2666-0.690429 0.2666-0.259768 0-0.460288-0.0866-0.601563-0.25976m-8.155273-1.56543c0.200518 0.76562 0.649411 1.14843 1.346679 1.14843 0.697262 0 1.291988-0.38281 1.78418-1.14843 0.496739-0.76563 0.895502-1.9209 1.196289-3.46582 0.300775-1.54948 0.350905-2.70703 0.150391-3.47266-0.19597-0.76562-0.642584-1.14843-1.339844-1.14844-0.69727 1e-5 -1.294275 0.38282-1.791016 1.14844-0.49219 0.76563-0.888674 1.92318-1.189453 3.47266-0.300783 1.54492-0.353192 2.70019-0.157226 3.46582m1.209961 1.82519c-1.107424 0-1.882163-0.46484-2.324219-1.39453-0.437501-0.92968-0.494467-2.22851-0.170898-3.89648 0.323566-1.67252 0.886391-2.97363 1.688476-3.90332 0.806637-0.92968 1.763668-1.39452 2.871094-1.39454 1.111972 2e-5 1.886711 0.46486 2.324219 1.39454 0.437491 0.92969 0.494457 2.2308 0.170898 3.90332-0.323575 1.66797-0.8864 2.9668-1.688477 3.89648-0.802088 0.92969-1.759119 1.39453-2.871093 1.39453m-13.6650393-5.14062h8.7636723v1.10742h-8.7636723v-1.10742m34.7402343-86.68457c0.200518 0.76562 0.649411 1.14843 1.34668 1.14843 0.697261 0 1.291987-0.38281 1.784179-1.14843 0.496739-0.76563 0.895502-1.9209 1.196289-3.46582 0.300775-1.54948 0.350905-2.70703 0.150391-3.47266-0.19597-0.76562-0.642584-1.14843-1.339844-1.14844-0.69727 1e-5 -1.294275 0.38282-1.791015 1.14844-0.492191 0.76563-0.888675 1.92318-1.189453 3.47266-0.300784 1.54492-0.353192 2.70019-0.157227 3.46582m1.209961 1.82519c-1.107424 0-1.882163-0.46484-2.324219-1.39453-0.4375-0.92968-0.494466-2.22851-0.170898-3.89648 0.323566-1.67252 0.886391-2.97363 1.688476-3.90332 0.806638-0.92968 1.763668-1.39452 2.871094-1.39454 1.111973 2e-5 1.886712 0.46486 2.324219 1.39454 0.437492 0.92969 0.494458 2.2308 0.170898 3.90332-0.323575 1.66797-0.8864 2.9668-1.688476 3.89648-0.802089 0.92969-1.759119 1.39453-2.871094 1.39453m-10.124023-1.82519c0.200518 0.76562 0.649411 1.14843 1.346679 1.14843 0.697262 0 1.291988-0.38281 1.78418-1.14843 0.496739-0.76563 0.895502-1.9209 1.196289-3.46582 0.300774-1.54948 0.350905-2.70703 0.150391-3.47266-0.19597-0.76562-0.642585-1.14843-1.339844-1.14844-0.69727 1e-5 -1.294275 0.38282-1.791016 1.14844-0.49219 0.76563-0.888674 1.92318-1.189453 3.47266-0.300783 1.54492-0.353192 2.70019-0.157226 3.46582m1.20996 1.82519c-1.107424 0-1.882162-0.46484-2.324218-1.39453-0.437501-0.92968-0.494467-2.22851-0.170899-3.89648 0.323567-1.67252 0.886392-2.97363 1.688477-3.90332 0.806637-0.92968 1.763667-1.39452 2.871094-1.39454 1.111972 2e-5 1.886711 0.46486 2.324218 1.39454 0.437492 0.92969 0.494458 2.2308 0.170899 3.90332-0.323576 1.66797-0.886401 2.9668-1.688477 3.89648-0.802089 0.92969-1.759119 1.39453-2.871094 1.39453m-6.425781-0.25976c-0.13672-0.17774-0.180014-0.39421-0.129883-0.64942 0.05013-0.2552 0.177733-0.47168 0.382813-0.64941 0.209633-0.17773 0.444334-0.2666 0.704101-0.2666 0.250649 0 0.446612 0.0889 0.587891 0.2666 0.14583 0.17773 0.193682 0.39421 0.143555 0.64941-0.05013 0.25065-0.182295 0.46485-0.396485 0.64258-0.209638 0.17773-0.439781 0.2666-0.690429 0.2666-0.259768 0-0.460288-0.0866-0.601563-0.25976m-8.155273-1.56543c0.200518 0.76562 0.649411 1.14843 1.346679 1.14843 0.697262 0 1.291988-0.38281 1.78418-1.14843 0.496739-0.76563 0.895502-1.9209 1.196289-3.46582 0.300775-1.54948 0.350905-2.70703 0.150391-3.47266-0.19597-0.76562-0.642584-1.14843-1.339844-1.14844-0.69727 1e-5 -1.294275 0.38282-1.791016 1.14844-0.49219 0.76563-0.888674 1.92318-1.189453 3.47266-0.300783 1.54492-0.353192 2.70019-0.157226 3.46582m1.209961 1.82519c-1.107424 0-1.882163-0.46484-2.324219-1.39453-0.437501-0.92968-0.494467-2.22851-0.170898-3.89648 0.323566-1.67252 0.886391-2.97363 1.688476-3.90332 0.806637-0.92968 1.763668-1.39452 2.871094-1.39454 1.111972 2e-5 1.886711 0.46486 2.324219 1.39454 0.437491 0.92969 0.494457 2.2308 0.170898 3.90332-0.323575 1.66797-0.8864 2.9668-1.688477 3.89648-0.802088 0.92969-1.759119 1.39453-2.871093 1.39453m26.919922-55.40429-0.21875 1.12109h-4.675782l-0.567382 2.92578c0.268877-0.16406 0.569658-0.2871 0.902343-0.36914 0.332679-0.082 0.694983-0.12304 1.086914-0.12305 1.102859 1e-5 1.914056 0.30535 2.433594 0.91602 0.519524 0.61068 0.67675 1.44466 0.47168 2.50195-0.209643 1.08008-0.697273 1.92318-1.462891 2.5293-0.761073 0.60156-1.724939 0.90234-2.891601 0.90234-0.469404 0-0.938805-0.057-1.408204-0.1709-0.469402-0.11393-0.938802-0.28711-1.408203-0.51953l0.382813-1.98242h0.772461c-0.08659 0.64714 0.02278 1.1416 0.328125 1.4834 0.305336 0.3418 0.792966 0.51269 1.46289 0.51269 0.720049 0 1.319332-0.23697 1.797852-0.71093 0.483067-0.47396 0.811192-1.15527 0.984375-2.04395 0.168614-0.88411 0.10709-1.56087-0.18457-2.03027-0.291673-0.47395-0.79981-0.71093-1.524414-0.71094-0.410161 1e-5 -0.786137 0.0729-1.12793 0.21875-0.3418 0.14584-0.663089 0.37143-0.963867 0.67676h-0.587891l0.998047-5.12695h5.400391m-14.669922 2.43359h-0.765625l0.355468-1.81836c0.537758-0.25976 1.066404-0.458 1.585938-0.59473 0.524085-0.13671 1.023107-0.20506 1.49707-0.20508 1.061843 2e-5 1.850254 0.2575 2.365235 0.77247 0.514966 0.51498 0.685864 1.21452 0.512695 2.09863-0.191414 0.99805-1.1211 2.19206-2.789063 3.58203-0.127609 0.10482-0.22559 0.18457-0.293945 0.23926l-3.076172 2.57715h4.258789l0.246094-1.25782h0.799805l-0.464844 2.37891h-6.583008l0.143555-0.74512 3.698242-3.08984c0.815751-0.68359 1.424149-1.31022 1.825195-1.87988 0.405593-0.57422 0.669916-1.17578 0.792969-1.80469 0.132155-0.68814 0.05696-1.2259-0.225586-1.61328-0.282558-0.38736-0.738286-0.58105-1.367187-0.58106-0.651697 1e-5 -1.187178 0.1618-1.606446 0.48535-0.414716 0.32358-0.717775 0.80893-0.909179 1.45606m-5.304688 7.71094c-0.13672-0.17774-0.180014-0.39421-0.129883-0.64942 0.05013-0.2552 0.177733-0.47168 0.382813-0.64941 0.209633-0.17773 0.444334-0.2666 0.704101-0.2666 0.250649 0 0.446612 0.0889 0.587891 0.2666 0.14583 0.17773 0.193682 0.39421 0.143555 0.64941-0.05013 0.25065-0.182295 0.46485-0.396485 0.64258-0.209638 0.17773-0.439781 0.2666-0.690429 0.2666-0.259768 0-0.460288-0.0866-0.601563-0.25976m-8.155273-1.56543c0.200518 0.76562 0.649411 1.14843 1.346679 1.14843 0.697262 0 1.291988-0.38281 1.78418-1.14843 0.496739-0.76563 0.895502-1.9209 1.196289-3.46582 0.300775-1.54948 0.350905-2.70703 0.150391-3.47266-0.19597-0.76562-0.642584-1.14843-1.339844-1.14844-0.69727 1e-5 -1.294275 0.38282-1.791016 1.14844-0.49219 0.76563-0.888674 1.92318-1.189453 3.47266-0.300783 1.54492-0.353192 2.70019-0.157226 3.46582m1.209961 1.82519c-1.107424 0-1.882163-0.46484-2.324219-1.39453-0.437501-0.92968-0.494467-2.22851-0.170898-3.89648 0.323566-1.67252 0.886391-2.97363 1.688476-3.90332 0.806637-0.92968 1.763668-1.39452 2.871094-1.39454 1.111972 2e-5 1.886711 0.46486 2.324219 1.39454 0.437491 0.92969 0.494457 2.2308 0.170898 3.90332-0.323575 1.66797-0.8864 2.9668-1.688477 3.89648-0.802088 0.92969-1.759119 1.39453-2.871093 1.39453m191.003906 255.98926v1h7.890625v-1zm15.806255 6.13379h-0.76562l0.35547-1.81836c0.53776-0.25976 1.0664-0.458 1.58594-0.59473 0.52408-0.13671 1.0231-0.20506 1.49707-0.20508 1.06184 2e-5 1.85025 0.2575 2.36523 0.77247 0.51497 0.51498 0.68586 1.21452 0.5127 2.09863-0.19142 0.99805-1.12111 2.19206-2.78907 3.58203-0.12761 0.10482-0.22559 0.18457-0.29394 0.23926l-3.07617 2.57715h4.25878l0.2461-1.25782h0.7998l-0.46484 2.37891h-6.58301l0.14356-0.74512 3.69824-3.08984c0.81575-0.68359 1.42415-1.31022 1.82519-1.87988 0.4056-0.57422 0.66992-1.17578 0.79297-1.80469 0.13216-0.68814 0.057-1.2259-0.22558-1.61328-0.28256-0.38736-0.73829-0.58105-1.36719-0.58106-0.6517 1e-5 -1.18718 0.1618-1.60645 0.48535-0.41471 0.32358-0.71777 0.80893-0.90918 1.45606m-5.806255-6.13379v1h15.1953125v-1zm7.399035-2.34277 0.13672-0.72461h1.13476l1.13477-5.81055h-1.20313l0.13672-0.73145h8.18945l-0.13671 0.73145h-1.18946l-1.13476 5.81055h1.12109l-0.13672 0.72461h-3.47265l0.13671-0.72461h1.08692l1.13476-5.81055h-3.27441l-1.13477 5.81055h1.09375l-0.13671 0.72461h-3.48633m-150.236926 3.24902 0.136719-0.72461h1.134766l1.134765-5.81055h-1.203125l0.136719-0.73144h8.189453l-0.136719 0.73144h-1.189453l-1.134765 5.81055h1.121093l-0.136718 0.72461h-3.472657l0.136719-0.72461h1.086914l1.134766-5.81055h-3.274414l-1.134766 5.81055h1.09375l-0.136719 0.72461h-3.486328m-6.521484-9.77539c0.574216-0.20051 1.116533-0.35318 1.626953-0.45801 0.510412-0.10481 0.979813-0.15721 1.408203-0.15723 0.998041 2e-5 1.734043 0.21649 2.208008 0.64942 0.478508 0.42839 0.64257 1.0254 0.492188 1.79101-0.118498 0.61525-0.412443 1.13022-0.881836 1.54493-0.464851 0.41016-1.066413 0.68815-1.804688 0.83398 0.811192 0.1185 1.401361 0.42383 1.770508 0.91602 0.369133 0.48763 0.476229 1.12109 0.321289 1.90039-0.182299 0.95247-0.644864 1.68392-1.387695 2.19433-0.738287 0.50586-1.708989 0.75879-2.91211 0.75879-0.533205 0-1.043622-0.057-1.53125-0.1709-0.483074-0.11393-0.952474-0.28711-1.408203-0.51953l0.382813-1.98242h0.765625c-0.08203 0.65625 0.04329 1.153 0.375976 1.49023 0.332681 0.33725 0.859047 0.50586 1.579102 0.50586 0.697261 0 1.285152-0.20052 1.763672-0.60156 0.483067-0.4056 0.792963-0.95931 0.929687-1.66113 0.154942-0.80208 0.0638-1.4082-0.273437-1.81836-0.332688-0.41471-0.90007-0.62207-1.702149-0.62207h-0.649414l0.136719-0.69727h0.341797c0.797521 1e-5 1.426427-0.16405 1.886719-0.49218 0.464837-0.33268 0.763339-0.8317 0.895507-1.49707 0.113926-0.597 0.03645-1.05273-0.232422-1.36719-0.264329-0.319-0.704107-0.47851-1.319335-0.47852-0.615239 1e-5 -1.121098 0.14585-1.517579 0.4375-0.396487 0.29168-0.679039 0.72462-0.847656 1.29883h-0.765625l0.348633-1.79785m-12.516602 4.83301h8.763672v1.10742h-8.763672v-1.10742m465.573612 10.16992h-0.76563l0.35547-1.81836c0.53776-0.25976 1.0664-0.458 1.58594-0.59473 0.52408-0.13671 1.02311-0.20506 1.49707-0.20508 1.06184 2e-5 1.85025 0.2575 2.36523 0.77247 0.51497 0.51498 0.68587 1.21452 0.5127 2.09863-0.19142 0.99805-1.1211 2.19206-2.78906 3.58203-0.12761 0.10482-0.2256 0.18457-0.29395 0.23926l-3.07617 2.57715h4.25879l0.24609-1.25782h0.79981l-0.46485 2.37891h-6.58301l0.14356-0.74512 3.69824-3.08984c0.81575-0.68359 1.42415-1.31022 1.8252-1.87988 0.40559-0.57422 0.66991-1.17578 0.79297-1.80469 0.13215-0.68814 0.057-1.2259-0.22559-1.61328-0.28256-0.38736-0.73829-0.58105-1.36719-0.58106-0.6517 1e-5 -1.18718 0.1618-1.60644 0.48535-0.41472 0.32358-0.71778 0.80893-0.90918 1.45606m-5.80701-6.13379v1h15.1953125v-1zm6.89978-2.34277 0.13672-0.72461h1.13476l1.13477-5.81055h-1.20312l0.13671-0.73145h8.18946l-0.13672 0.73145h-1.18945l-1.13477 5.81055h1.12109l-0.13672 0.72461h-3.47265l0.13672-0.72461h1.08691l1.13477-5.81055h-3.27442l-1.13476 5.81055h1.09375l-0.13672 0.72461h-3.48633m51.23541 6.2341 0.13672-0.72461h1.13477l1.13476-5.81055h-1.20312l0.13672-0.73144h8.18945l-0.13672 0.73144h-1.18945l-1.13477 5.81055h1.1211l-0.13672 0.72461h-3.47266l0.13672-0.72461h1.08691l1.13477-5.81055h-3.27441l-1.13477 5.81055h1.09375l-0.13672 0.72461h-3.48633m-6.49414-7.77246h-0.76562l0.35547-1.81836c0.53775-0.25976 1.0664-0.458 1.58593-0.59473 0.52409-0.13671 1.02311-0.20507 1.49707-0.20508 1.06185 1e-5 1.85026 0.2575 2.36524 0.77246 0.51496 0.51499 0.68586 1.21453 0.51269 2.09864-0.19141 0.99805-1.1211 2.19206-2.78906 3.58203-0.12761 0.10482-0.22559 0.18457-0.29394 0.23925l-3.07618 2.57715h4.25879l0.2461-1.25781h0.7998l-0.46484 2.37891h-6.58301l0.14355-0.74512 3.69825-3.08984c0.81575-0.68359 1.42415-1.31022 1.82519-1.87989 0.40559-0.57421 0.66992-1.17577 0.79297-1.80468 0.13216-0.68815 0.057-1.22591-0.22559-1.61329-0.28255-0.38736-0.73828-0.58104-1.36718-0.58105-0.6517 1e-5 -1.18718 0.16179-1.60645 0.48535-0.41471 0.32358-0.71777 0.80893-0.90918 1.45606m54.66596 10.01492h-0.76563l0.35547-1.81836c0.53776-0.25976 1.0664-0.458 1.58594-0.59473 0.52408-0.13671 1.02311-0.20506 1.49707-0.20508 1.06184 2e-5 1.85025 0.2575 2.36523 0.77247 0.51497 0.51498 0.68587 1.21452 0.5127 2.09863-0.19142 0.99805-1.1211 2.19206-2.78906 3.58203-0.12761 0.10482-0.2256 0.18457-0.29395 0.23926l-3.07617 2.57715h4.25879l0.24609-1.25782h0.79981l-0.46485 2.37891h-6.58301l0.14356-0.74512 3.69824-3.08984c0.81575-0.68359 1.42415-1.31022 1.8252-1.87988 0.40559-0.57422 0.66991-1.17578 0.79297-1.80469 0.13215-0.68814 0.057-1.2259-0.22559-1.61328-0.28256-0.38736-0.73829-0.58105-1.36719-0.58106-0.6517 1e-5 -1.18718 0.1618-1.60644 0.48535-0.41472 0.32358-0.71778 0.80893-0.90918 1.45606m-5.80701-6.13379v1h15.1953125v-1zm6.89978-2.34277 0.13672-0.72461h1.13476l1.13477-5.81055h-1.20312l0.13671-0.73145h8.18946l-0.13672 0.73145h-1.18945l-1.13477 5.81055h1.12109l-0.13672 0.72461h-3.47265l0.13672-0.72461h1.08691l1.13477-5.81055h-3.27442l-1.13476 5.81055h1.09375l-0.13672 0.72461h-3.48633m-0.73828-10.20606-0.21875 1.1211h-4.67578l-0.56739 2.92578c0.26888-0.16406 0.56966-0.28711 0.90235-0.36914 0.33268-0.082 0.69498-0.12304 1.08691-0.12305 1.10286 1e-5 1.91406 0.30534 2.4336 0.91601 0.51952 0.61069 0.67675 1.44467 0.47168 2.50196-0.20965 1.08008-0.69728 1.92318-1.46289 2.52929-0.76108 0.60157-1.72494 0.90235-2.89161 0.90235-0.4694 0-0.9388-0.057-1.4082-0.1709-0.4694-0.11393-0.9388-0.28711-1.4082-0.51953l0.38281-1.98242h0.77246c-0.0866 0.64713 0.0228 1.1416 0.32813 1.4834 0.30533 0.34179 0.79296 0.51269 1.46289 0.51269 0.72004 0 1.31933-0.23698 1.79785-0.71094 0.48307-0.47395 0.81119-1.15527 0.98437-2.04394 0.16862-0.88411 0.10709-1.56087-0.18457-2.03028-0.29167-0.47395-0.79981-0.71093-1.52441-0.71093-0.41016 0-0.78614 0.0729-1.12793 0.21875-0.3418 0.14584-0.66309 0.37142-0.96387 0.67675h-0.58789l0.99805-5.12695h5.40039m-201.64612 18.68262h-0.76562l0.35546-1.81836c0.53776-0.25976 1.06641-0.458 1.58594-0.59473 0.52409-0.13671 1.02311-0.20506 1.49707-0.20508 1.06185 2e-5 1.85026 0.2575 2.36524 0.77247 0.51496 0.51498 0.68586 1.21452 0.51269 2.09863-0.19141 0.99805-1.1211 2.19206-2.78906 3.58203-0.12761 0.10482-0.22559 0.18457-0.29395 0.23926l-3.07617 2.57715h4.25879l0.2461-1.25782h0.7998l-0.46484 2.37891h-6.58301l0.14355-0.74512 3.69825-3.08984c0.81575-0.68359 1.42414-1.31022 1.82519-1.87988 0.40559-0.57422 0.66992-1.17578 0.79297-1.80469 0.13215-0.68814 0.057-1.2259-0.22559-1.61328-0.28255-0.38736-0.73828-0.58105-1.36718-0.58106-0.6517 1e-5 -1.18718 0.1618-1.60645 0.48535-0.41472 0.32358-0.71778 0.80893-0.90918 1.45606m6.48462-5.63379h-9.38721m0.48462-2.84277 0.13672-0.72461h1.13477l1.13476-5.81055h-1.20312l0.13672-0.73145h8.18945l-0.13672 0.73145h-1.18945l-1.13477 5.81055h1.1211l-0.13672 0.72461h-3.47266l0.13672-0.72461h1.08691l1.13477-5.81055h-3.27442l-1.13476 5.81055h1.09375l-0.13672 0.72461h-3.48633m-106.2009256 2.34277v1h7.890625v-1zm12.71078562 6.13379h-0.76563l0.35547-1.81836c0.53776-0.25976 1.06641-0.458 1.58594-0.59473 0.52409-0.13671 1.02311-0.20506 1.49707-0.20508 1.06184 2e-5 1.85025 0.2575 2.36524 0.77247 0.51496 0.51498 0.68586 1.21452 0.51269 2.09863-0.19141 0.99805-1.1211 2.19206-2.78906 3.58203-0.12761 0.10482-0.22559 0.18457-0.29395 0.23926l-3.07617 2.57715h4.25879l0.24609-1.25782h0.79981l-0.46485 2.37891h-6.583l0.14355-0.74512 3.69824-3.08984c0.81575-0.68359 1.42415-1.31022 1.8252-1.87988 0.40559-0.57422 0.66991-1.17578 0.79297-1.80469 0.13215-0.68814 0.057-1.2259-0.22559-1.61328-0.28256-0.38736-0.73828-0.58105-1.36719-0.58106-0.65169 1e-5 -1.18717 0.1618-1.60644 0.48535-0.41472 0.32358-0.71778 0.80893-0.90918 1.45606m-2.902191875-6.13379v1h9.38671875v-1zm-0.015778125-2.34277 0.13672-0.72461h1.13476l1.13477-5.81055h-1.20312l0.13671-0.73145h8.18946l-0.13672 0.73145h-1.18945l-1.13477 5.81055h1.12109l-0.13672 0.72461h-3.47265l0.13672-0.72461h1.08691l1.13477-5.81055h-3.27442l-1.13476 5.81055h1.09375l-0.13672 0.72461h-3.48633m-214.798675 2.34277v1h7.892578125v-1zm15.807615 6.13379h-0.76562l0.35547-1.81836c0.53775-0.25976 1.0664-0.458 1.58593-0.59473 0.52409-0.13671 1.02311-0.20506 1.49707-0.20508 1.06185 2e-5 1.85026 0.2575 2.36524 0.77247 0.51496 0.51498 0.68586 1.21452 0.51269 2.09863-0.19141 0.99805-1.1211 2.19206-2.78906 3.58203-0.12761 0.10482-0.22559 0.18457-0.29394 0.23926l-3.07618 2.57715h4.25879l0.2461-1.25782h0.7998l-0.46484 2.37891h-6.58301l0.14355-0.74512 3.69825-3.08984c0.81575-0.68359 1.42414-1.31022 1.82519-1.87988 0.40559-0.57422 0.66992-1.17578 0.79297-1.80469 0.13216-0.68814 0.057-1.2259-0.22559-1.61328-0.28255-0.38736-0.73828-0.58105-1.36718-0.58106-0.6517 1e-5 -1.18718 0.1618-1.60645 0.48535-0.41471 0.32358-0.71777 0.80893-0.90918 1.45606m-5.807615-6.13379v1h15.19726562v-1zm7.400395-2.34277 0.13671-0.72461h1.13477l1.13477-5.81055h-1.20313l0.13672-0.73145h8.18945l-0.13672 0.73145h-1.18945l-1.13477 5.81055h1.1211l-0.13672 0.72461h-3.47266l0.13672-0.72461h1.08692l1.13476-5.81055h-3.27441l-1.13477 5.81055h1.09375l-0.13672 0.72461h-3.48632m-0.73829-10.20606-0.21875 1.1211h-4.67578l-0.56738 2.92578c0.26888-0.16406 0.56966-0.28711 0.90234-0.36914 0.33268-0.082 0.69499-0.12304 1.08692-0.12305 1.10286 1e-5 1.91405 0.30534 2.43359 0.91601 0.51953 0.61069 0.67675 1.44467 0.47168 2.50196-0.20964 1.08008-0.69727 1.92318-1.46289 2.52929-0.76107 0.60157-1.72494 0.90235-2.8916 0.90235-0.4694 0-0.9388-0.057-1.4082-0.1709-0.46941-0.11393-0.93881-0.28711-1.40821-0.51953l0.38282-1.98242h0.77246c-0.0866 0.64713 0.0228 1.1416 0.32812 1.4834 0.30534 0.34179 0.79297 0.51269 1.46289 0.51269 0.72005 0 1.31933-0.23698 1.79785-0.71094 0.48307-0.47395 0.8112-1.15527 0.98438-2.04394 0.16861-0.88411 0.10709-1.56087-0.18457-2.03028-0.29167-0.47395-0.79981-0.71093-1.52442-0.71093-0.41016 0-0.78613 0.0729-1.12793 0.21875-0.3418 0.14584-0.66308 0.37142-0.96386 0.67675h-0.58789l0.99804-5.12695h5.40039m245.91211 42.95508h-1.46484l5.49609-5.97656-2.76562-5.22657h-1.53516l0.23438-1.2539h3.16406l2.58984 4.85156 4.46485-4.85156h1.46484l-5.39062 5.85937 2.84765 5.35547h1.62891l-0.23438 1.24219h-3.26953l-2.64844-4.96875-4.58203 4.96875m303.57813-29.5 0.13672-0.72461h1.13476l1.13477-5.81055h-1.20313l0.13672-0.73144h8.18946l-0.13672 0.73144h-1.18946l-1.13476 5.81055h1.12109l-0.13672 0.72461h-3.47265l0.13672-0.72461h1.08691l1.13477-5.81055h-3.27442l-1.13476 5.81055h1.09375l-0.13672 0.72461h-3.48633m-6.52149-9.77539c0.57422-0.20051 1.11654-0.35318 1.62696-0.45801 0.51041-0.10481 0.97981-0.15721 1.4082-0.15723 0.99804 2e-5 1.73404 0.21649 2.20801 0.64942 0.47851 0.42839 0.64257 1.0254 0.49219 1.79101-0.1185 0.61525-0.41245 1.13022-0.88184 1.54493-0.46485 0.41016-1.06641 0.68815-1.80469 0.83398 0.81119 0.1185 1.40136 0.42383 1.77051 0.91602 0.36913 0.48763 0.47623 1.12109 0.32129 1.90039-0.1823 0.95247-0.64486 1.68392-1.3877 2.19433-0.73828 0.50586-1.70898 0.75879-2.91211 0.75879-0.5332 0-1.04362-0.057-1.53125-0.1709-0.48307-0.11393-0.95247-0.28711-1.4082-0.51953l0.38281-1.98242h0.76563c-0.082 0.65625 0.0433 1.153 0.37598 1.49023 0.33268 0.33725 0.85904 0.50586 1.5791 0.50586 0.69726 0 1.28515-0.20052 1.76367-0.60156 0.48307-0.4056 0.79296-0.95931 0.92969-1.66113 0.15494-0.80208 0.0638-1.4082-0.27344-1.81836-0.33269-0.41471-0.90007-0.62207-1.70215-0.62207h-0.64941l0.13672-0.69727h0.34179c0.79752 1e-5 1.42643-0.16405 1.88672-0.49218 0.46484-0.33268 0.76334-0.8317 0.89551-1.49707 0.11392-0.597 0.0365-1.05273-0.23242-1.36719-0.26433-0.319-0.70411-0.47851-1.31934-0.47852-0.61524 1e-5 -1.1211 0.14585-1.51758 0.4375-0.39648 0.29168-0.67904 0.72462-0.84765 1.29883h-0.76563l0.34863-1.79785m-198.19726 9.77539 0.13672-0.72461h1.13476l1.13477-5.81055h-1.20313l0.13672-0.73144h8.18946l-0.13672 0.73144h-1.18946l-1.13476 5.81055h1.12109l-0.13672 0.72461h-3.47265l0.13672-0.72461h1.08691l1.13477-5.81055h-3.27442l-1.13476 5.81055h1.09375l-0.13672 0.72461h-3.48633m-96.50684-1.7207c0.20052 0.76562 0.64941 1.14843 1.34668 1.14843 0.69726 0 1.29199-0.38281 1.78418-1.14843 0.49674-0.76563 0.8955-1.9209 1.19629-3.46582 0.30078-1.54948 0.35091-2.70703 0.15039-3.47266-0.19597-0.76562-0.64258-1.14843-1.33984-1.14844-0.69727 1e-5 -1.29428 0.38282-1.79102 1.14844-0.49219 0.76563-0.88867 1.92318-1.18945 3.47266-0.30078 1.54492-0.35319 2.70019-0.15723 3.46582m1.20996 1.82519c-1.10742 0-1.88216-0.46484-2.32422-1.39453-0.4375-0.92968-0.49446-2.22851-0.17089-3.89648 0.32356-1.67252 0.88639-2.97363 1.68847-3.90332 0.80664-0.92968 1.76367-1.39452 2.8711-1.39454 1.11197 2e-5 1.88671 0.46486 2.32422 1.39454 0.43749 0.92969 0.49445 2.2308 0.17089 3.90332-0.32357 1.66797-0.8864 2.9668-1.68847 3.89648-0.80209 0.92969-1.75912 1.39453-2.8711 1.39453m-102.93267-0.10449 0.13671-0.72461h1.13477l1.13477-5.81055h-1.20313l0.13672-0.73144h8.18945l-0.13672 0.73144h-1.18945l-1.13477 5.81055h1.1211l-0.13672 0.72461h-3.47266l0.13672-0.72461h1.08692l1.13476-5.81055h-3.27441l-1.13477 5.81055h1.09375l-0.13672 0.72461h-3.48632m-10.12403-4.94238h8.76367v1.10742h-8.76367v-1.10742m-83.44916 4.94238 0.13672-0.72461h1.13477l1.13476-5.81055h-1.20312l0.13672-0.73144h8.18945l-0.13672 0.73144h-1.18945l-1.13477 5.81055h1.1211l-0.13672 0.72461h-3.47266l0.13672-0.72461h1.08692l1.13476-5.81055h-3.27441l-1.13477 5.81055h1.09375l-0.13672 0.72461h-3.48633m-6.49414-7.77246h-0.76562l0.35547-1.81836c0.53776-0.25976 1.0664-0.458 1.58593-0.59473 0.52409-0.13671 1.02311-0.20506 1.49708-0.20508 1.06184 2e-5 1.85025 0.2575 2.36523 0.77247 0.51497 0.51498 0.68586 1.21452 0.51269 2.09863-0.19141 0.99805-1.1211 2.19206-2.78906 3.58203-0.12761 0.10482-0.22559 0.18457-0.29394 0.23926l-3.07617 2.57715h4.25878l0.2461-1.25782h0.7998l-0.46484 2.37891h-6.58301l0.14356-0.74512 3.69824-3.08984c0.81575-0.68359 1.42415-1.31022 1.82519-1.87988 0.4056-0.57422 0.66992-1.17578 0.79297-1.80469 0.13216-0.68814 0.057-1.2259-0.22558-1.61328-0.28256-0.38736-0.73829-0.58105-1.36719-0.58106-0.6517 1e-5 -1.18718 0.1618-1.60645 0.48535-0.41471 0.32358-0.71777 0.80893-0.90918 1.45606m-12.54394 2.83008h8.76367v1.10742h-8.76367v-1.10742m336.14325-351.648837h-1.22071l4.58008-4.980469-2.30468-4.355469h-1.2793l0.19531-1.044921h2.63672l2.1582 4.042968 3.72071-4.042968h1.2207l-4.49219 4.882812 2.37305 4.462891h1.35742l-0.19531 1.035156h-2.72461l-2.20703-4.140625-3.81836 4.140625m-15.90796-0.576172v-2.421875h1.03516c0.026 0.774742 0.26692 1.354168 0.72265 1.738281 0.46224 0.384116 1.14258 0.576173 2.04102 0.576172 0.80728 1e-6 1.42252-0.149739 1.8457-0.449219 0.42317-0.305988 0.63476-0.748696 0.63477-1.328125-1e-5 -0.455726-0.15626-0.823564-0.46875-1.103515-0.306-0.279944-0.95704-0.579423-1.95313-0.898438l-1.29883-0.439453c-0.89193-0.286453-1.53971-0.644525-1.94336-1.074219-0.39713-0.429681-0.5957-0.976555-0.5957-1.640625 0-0.950512 0.34831-1.695954 1.04492-2.236328 0.69661-0.540354 1.66015-0.810536 2.89063-0.810547 0.54687 1.1e-5 1.12304 0.07163 1.72851 0.214844 0.60546 0.14324 1.23046 0.351573 1.875 0.625v2.265625h-1.03515c-0.026-0.670564-0.26043-1.194652-0.70313-1.572265-0.44271-0.377595-1.04493-0.566397-1.80664-0.566407-0.75521 1e-5 -1.32813 0.133473-1.71875 0.400391-0.38412 0.266936-0.57617 0.667326-0.57617 1.201172 0 0.436205 0.14648 0.787768 0.43945 1.054687 0.29297 0.260424 0.8789 0.527351 1.75781 0.800782l1.42579 0.439453c0.98306 0.305995 1.68944 0.690109 2.11914 1.152343 0.43619 0.455734 0.65428 1.044926 0.65429 1.767579-1e-5 0.983074-0.37761 1.757813-1.13281 2.324218-0.7487 0.559896-1.78386 0.839844-3.10547 0.839844-0.67058 0-1.32487-0.07161-1.96289-0.214844-0.63802-0.143229-1.27604-0.358072-1.91406-0.644531m-7.13867-0.107422c0.96353 1e-6 1.68944-0.380858 2.17773-1.142578 0.49478-0.761716 0.74218-1.884762 0.74219-3.369141-1e-5 -1.484368-0.24741-2.604158-0.74219-3.359375-0.48829-0.761709-1.2142-1.142568-2.17773-1.142578-0.96355 1e-5 -1.69272 0.380869-2.1875 1.142578-0.48829 0.755217-0.73243 1.875007-0.73242 3.359375-1e-5 1.484379 0.24739 2.607425 0.74218 3.369141 0.49479 0.76172 1.2207 1.142579 2.17774 1.142578m0 0.966797c-1.51042 0-2.72462-0.498047-3.64258-1.494141-0.91797-1.002601-1.37696-2.330725-1.37695-3.984375-1e-5 -1.653639 0.45572-2.978507 1.36718-3.974609 0.91797-0.996083 2.13542-1.49413 3.65235-1.494141 1.51692 1.1e-5 2.73111 0.498058 3.64258 1.494141 0.91795 0.996102 1.37694 2.32097 1.37695 3.974609-1e-5 1.65365-0.459 2.981774-1.37695 3.984375-0.91147 0.996094-2.12566 1.494141-3.64258 1.494141m-6.94336-3.398437c-0.25392 1.106772-0.7422 1.949871-1.46485 2.529296-0.72266 0.579428-1.6569 0.869141-2.80273 0.869141-1.51042 0-2.72461-0.498047-3.64258-1.494141-0.91797-1.002601-1.37695-2.330725-1.37695-3.984375 0-1.660149 0.45898-2.985017 1.37695-3.974609 0.91797-0.996083 2.13216-1.49413 3.64258-1.494141 0.65755 1.1e-5 1.31184 0.07814 1.96289 0.234375 0.65103 0.14975 1.30533 0.38087 1.96289 0.69336v2.65625h-1.04492c-0.13673-0.911451-0.43621-1.575512-0.89844-1.992188-0.45574-0.416657-1.11003-0.62499-1.96289-0.625-0.97006 1e-5 -1.70248 0.377614-2.19726 1.132813-0.4948 0.748706-0.7422 1.871751-0.74219 3.36914-1e-5 1.4974 0.24413 2.623701 0.73242 3.378907 0.49479 0.755209 1.23046 1.132813 2.20703 1.132812 0.77473 1e-6 1.39322-0.201822 1.85547-0.605469 0.46223-0.403644 0.77799-1.012367 0.94727-1.826171h1.44531m30.86178-17.940888h-1.2207l4.58008-4.980469-2.30469-4.355468h-1.2793l0.19532-1.044922h2.63672l2.1582 4.042969 3.7207-4.042969h1.2207l-4.49218 4.882812 2.37304 4.462891h1.35743l-0.19532 1.035156h-2.72461l-2.20703-4.140625-3.81836 4.140625m-17.77319 0v-1.035156h1.62109v-8.300781h-1.71875v-1.044922h3.51563v1.845703c0.33203-0.703116 0.76171-1.233714 1.28906-1.591797 0.53385-0.358062 1.15234-0.537099 1.85547-0.537109 1.14583 1e-5 1.98892 0.328786 2.5293 0.986328 0.54035 0.657561 0.81053 1.68295 0.81054 3.076172v5.566406h1.60157v1.035156h-4.96094v-1.035156h1.55273v-5c-1e-5 -1.269524-0.15626-2.138664-0.46875-2.607422-0.3125-0.475251-0.86263-0.712881-1.65039-0.712891-0.83334 1e-5 -1.4681 0.305999-1.90429 0.917969-0.43621 0.605477-0.65431 1.490892-0.6543 2.65625v4.746094h1.5625v1.035156h-4.98047m-5.2832-13.603515c0-0.299466 0.10742-0.559882 0.32226-0.78125 0.22135-0.22134 0.48503-0.332017 0.79102-0.332032 0.29947 1.5e-5 0.55664 0.110692 0.77148 0.332032 0.22135 0.221368 0.33203 0.481784 0.33203 0.78125 0 0.306002-0.10742 0.566419-0.32226 0.78125-0.21485 0.214856-0.47527 0.322278-0.78125 0.322265-0.30599 1.3e-5 -0.56967-0.107409-0.79102-0.322265-0.21484-0.214831-0.32226-0.475248-0.32226-0.78125m2.29492 12.568359h1.69922v1.035156h-5.21485v-1.035156h1.71875v-8.300781h-1.71875v-1.044922h3.51563v9.345703m-13.38867 0.458984v-2.421875h1.03515c0.026 0.774742 0.26693 1.354169 0.72266 1.738282 0.46224 0.384115 1.14257 0.576172 2.04102 0.576171 0.80728 1e-6 1.42251-0.149738 1.8457-0.449218 0.42317-0.305989 0.63476-0.748696 0.63476-1.328125 0-0.455727-0.15625-0.823565-0.46875-1.103516-0.30599-0.279944-0.95703-0.579423-1.95312-0.898437l-1.29883-0.439454c-0.89193-0.286453-1.53971-0.644525-1.94336-1.074218-0.39714-0.429681-0.5957-0.976556-0.5957-1.640625 0-0.950513 0.3483-1.695955 1.04492-2.236328 0.69661-0.540355 1.66015-0.810537 2.89063-0.810547 0.54686 1e-5 1.12304 0.07162 1.72851 0.214843 0.60546 0.14324 1.23046 0.351573 1.875 0.625v2.265625h-1.03516c-0.026-0.670564-0.26042-1.194652-0.70312-1.572265-0.44272-0.377595-1.04493-0.566397-1.80664-0.566406-0.75521 9e-6 -1.32813 0.133473-1.71875 0.40039-0.38412 0.266936-0.57618 0.667326-0.57617 1.201172-1e-5 0.436206 0.14648 0.787768 0.43945 1.054688 0.29297 0.260423 0.8789 0.52735 1.75781 0.800781l1.42578 0.439453c0.98307 0.305995 1.68945 0.690109 2.11914 1.152344 0.43619 0.455733 0.65429 1.044925 0.6543 1.767578-1e-5 0.983075-0.37761 1.757813-1.13281 2.324219-0.74871 0.559895-1.78386 0.839843-3.10547 0.839843-0.67058 0-1.32487-0.07162-1.96289-0.214843-0.63802-0.14323-1.27604-0.358073-1.91406-0.644532m-241.86138 365.199101c0.57422-0.20051 1.11654-0.35318 1.62696-0.45801 0.51041-0.10481 0.97981-0.15722 1.4082-0.15723 0.99804 1e-5 1.73404 0.21648 2.20801 0.64942 0.4785 0.42839 0.64257 1.02539 0.49218 1.79101-0.11849 0.61524-0.41244 1.13022-0.88183 1.54492-0.46485 0.41017-1.06641 0.68816-1.80469 0.83399 0.81119 0.11849 1.40136 0.42383 1.77051 0.91601 0.36913 0.48764 0.47623 1.1211 0.32129 1.90039-0.1823 0.95248-0.64487 1.68392-1.3877 2.19434-0.73828 0.50586-1.70899 0.75879-2.91211 0.75879-0.5332 0-1.04362-0.057-1.53125-0.1709-0.48307-0.11393-0.95247-0.28711-1.4082-0.51953l0.38281-1.98242h0.76563c-0.082 0.65625 0.0433 1.15299 0.37597 1.49023 0.33268 0.33724 0.85905 0.50586 1.57911 0.50586 0.69726 0 1.28515-0.20052 1.76367-0.60156 0.48307-0.4056 0.79296-0.95931 0.92969-1.66113 0.15494-0.80208 0.0638-1.4082-0.27344-1.81836-0.33269-0.41471-0.90007-0.62207-1.70215-0.62207h-0.64941l0.13671-0.69727h0.3418c0.79752 1e-5 1.42643-0.16406 1.88672-0.49219 0.46484-0.33267 0.76334-0.8317 0.89551-1.49707 0.11392-0.59699 0.0365-1.05272-0.23242-1.36719-0.26433-0.319-0.70411-0.4785-1.31934-0.47851-0.61524 1e-5 -1.1211 0.14584-1.51758 0.4375-0.39649 0.29168-0.67904 0.72462-0.84765 1.29883h-0.76563l0.34863-1.79785m297.39138 0c0.57421-0.20051 1.11653-0.35318 1.62695-0.45801 0.51041-0.10481 0.97981-0.15722 1.4082-0.15723 0.99804 1e-5 1.73404 0.21648 2.20801 0.64942 0.47851 0.42839 0.64257 1.02539 0.49219 1.79101-0.1185 0.61524-0.41245 1.13022-0.88184 1.54492-0.46485 0.41017-1.06641 0.68816-1.80469 0.83399 0.8112 0.11849 1.40136 0.42383 1.77051 0.91601 0.36914 0.48764 0.47623 1.1211 0.32129 1.90039-0.1823 0.95248-0.64486 1.68392-1.38769 2.19434-0.73829 0.50586-1.70899 0.75879-2.91211 0.75879-0.53321 0-1.04363-0.057-1.53125-0.1709-0.48308-0.11393-0.95248-0.28711-1.40821-0.51953l0.38282-1.98242h0.76562c-0.082 0.65625 0.0433 1.15299 0.37598 1.49023s0.85904 0.50586 1.5791 0.50586c0.69726 0 1.28515-0.20052 1.76367-0.60156 0.48307-0.4056 0.79296-0.95931 0.92969-1.66113 0.15494-0.80208 0.0638-1.4082-0.27344-1.81836-0.33269-0.41471-0.90007-0.62207-1.70215-0.62207h-0.64941l0.13672-0.69727h0.34179c0.79753 1e-5 1.42643-0.16406 1.88672-0.49219 0.46484-0.33267 0.76334-0.8317 0.89551-1.49707 0.11393-0.59699 0.0365-1.05272-0.23242-1.36719-0.26433-0.319-0.70411-0.4785-1.31934-0.47851-0.61524 1e-5 -1.1211 0.14584-1.51758 0.4375-0.39648 0.29168-0.67903 0.72462-0.84765 1.29883h-0.76563l0.34864-1.79785m-273.2179338-171.0857427 2.198065655-1.10581672h0.2198114894v7.864298642c-9.847744e-6 0.5220078817 0.01999091991 0.8471077208 0.05997275974 0.9753198267 0.04441332454 0.1282019512 0.1332104304 0.2266508952 0.2664307085 0.2953366772 0.1332202781 0.0686451636 0.4040923191 0.1076084022 0.8126259706 0.1167577058v0.2541292699h-3.397018615v-0.2541292699c0.4262891336-0.009139149 0.701602507-0.0457972911 0.8259401202-0.1098931894 0.1243277655-0.0686451636 0.2109189767-0.1579651132 0.2597736337-0.2678684572 0.04884480925-0.1144627639 0.07326721387-0.4510170032 0.07326721387-1.009652563v-5.027648957c0-0.677678053-0.02225590099-1.112671082-0.06657074809-1.304999395-0.03111887041-0.1465107131-0.08882664908-0.2541191152-0.1731824225-0.3228150519-0.07996367966-0.0686451636-0.1776237549-0.1030083638-0.2930688555-0.1030185184-0.1643096053 1.015461e-5 -0.3929939118 0.0709807239-0.6860726151 0.2129218625l-0.09990536085-0.2129218625m-9.799480008 3.983663658h3.590182109v1.126410269h-3.590182109v-1.126410269m-63.85704472 2.623717668-0.6327864734 1.792644076h-5.328653561v-0.2541292699c1.567504772-1.474408754 2.670983855-2.678664263 3.310427404-3.612766527 0.6394337004-0.9340921101 0.9591505506-1.788064347 0.9591603984-2.561906557-9.847744e-6 -0.5906733545-0.1754080126-1.076043403-0.5262043422-1.456099992-0.3508061774-0.3800362792-0.7704382362-0.5700594962-1.258896176-0.5700696508-0.4440643112 1.015461e-5 -0.8437054501 0.1350867768-1.19895296 0.4052298667-0.3508061774 0.2655836699-0.6105798111 0.6570845039-0.7793110534 1.174492347h-0.2464496363c0.1110037681-0.8470874116 0.3951998064-1.497297244 0.8525782672-1.950619344 0.4618197932-0.4533017904 1.036868945-0.6799628402 1.725157302-0.6799729948 0.7326819865 1.015461e-5 1.343261798 0.242695179 1.831729586 0.7280550732 0.4928894249 0.4853700488 0.7393390613 1.057734641 0.739348909 1.717093778-9.847744e-6 0.4716308614-0.1065821311 0.9432617229-0.3197168502 1.41488243-0.3286093629 0.7417942605-0.8614707799 1.527080716-1.598603947 2.355859365-1.105694826 1.245473071-1.796198926 1.996416635-2.071512299 2.252830692h2.357933928c0.4795752753 0 0.8148318652-0.018278298 1.005779618-0.0549364401 0.195379237-0.0366581421 0.3707774018-0.1098931894 0.5262043422-0.2197863788 0.1554170927-0.1144729185 0.2908531131-0.2747329736 0.4063080614-0.4807903197h0.2464594841m-14.45532586-2.623727823h3.590182109v1.126410269h-3.590182109v-1.126410269m-69.41884854-3.125121846c0.2575509979-0.6273010328 0.5817101654-1.11037614 0.9724804566-1.449225321 0.3952066999-0.343408601 0.8858872759-0.5151230561 1.472041728-0.5151332107 0.723806215 1.015461e-5 1.278874294 0.242695179 1.665206207 0.7280550732 0.2930718098 0.361737672 0.4396091919 0.7486587769 0.4396151005 1.16075316-5.9086463e-6 0.6776882076-0.4129759688 1.378264906-1.238914119 2.101730096 0.5550641402 0.224366108 0.974696199 0.5448963726 1.258896176 0.9615704847 0.2841901297 0.4166842667 0.4262871641 0.9066340446 0.4262930727 1.469829024-5.9086463e-6 0.8059003134-0.2486762112 1.50418207-0.7460128772 2.094865579-0.6483242435 0.7692523259-1.587499631 1.153888644-2.817529116 1.153888644-0.6083561905 0-1.023547902-0.0778858587-1.245574149-0.2335255662-0.2175878688-0.1556904805-0.3263808184-0.3228150519-0.3263798337-0.5013940234-9.847744e-7 -0.132791835 0.05107039935-0.2495495408 0.153198396-0.3502934266 0.1065722834-0.1007337312 0.2331285933-0.1511005968 0.3796669601-0.1511005968 0.1110126311 0 0.2242469132 0.018278298 0.3397018615 0.0549364401 0.07549280397 0.0229494186 0.2464496363 0.1076084022 0.5128842839 0.2541292699 0.2664307085 0.1419512932 0.4507135078 0.2266610498 0.5528483978 0.2541292699 0.164297788 0.0503668656 0.3396989072 0.0755502984 0.526205327 0.0755502984 0.4529322045 0 0.8459202076-0.1808739133 1.178965979-0.5426115854 0.3374772562-0.3617275174 0.5062173614-0.7898560296 0.5062222853-1.284385537-4.9238719e-6 -0.3617275174-0.07771839407-0.7143057312-0.2331285933-1.057724487-0.1154588874-0.2564242117-0.2420142125-0.4510271578-0.3796669601-0.5838189927-0.1909477523-0.183148546-0.4529400827-0.3479883301-0.7859779759-0.4945193524-0.3330438019-0.1511005968-0.6727456634-0.2266508952-1.019105584-0.2266610498h-0.2131465364v-0.2060471915c0.3508012535-0.0457972911 0.7016044766-0.1762840296 1.052410654-0.3915008339 0.3552406164-0.2152066497 0.6127916143-0.4739156487 0.7726549633-0.7761269969 0.1598564556-0.3022011936 0.2397856681-0.6341757037 0.239790592-0.9959133758-4.9238719e-6 -0.4716207068-0.1443226245-0.8516772953-0.4329540866-1.140149456-0.2841989926-0.29305189-0.6394425634-0.4395727577-1.065731697-0.4395829123-0.6882873726 1.015461e-5 -1.263338494 0.3800565885-1.725154348 1.140149456l-0.2198065655-0.1098931894m-8.893534847 3.125142155h3.590185064v1.126410269h-3.590185064v-1.126410269"/>
 <g fill="none">
  <g stroke="#000">
   <path d="m324.7 232h5.457m-5.457 9.583h3.24m-3.24 9.582h3.24m-3.24 9.583h3.24m-3.24 9.582h3.24m-3.24 9.583h5.457m-5.457 9.671h3.24m-3.24 9.582h3.24m-3.24 9.583h3.24m-3.24 9.582h3.24m-3.24 9.583h5.457m-5.457 9.582h3.24m-3.24 9.671h3.24m-3.24 9.583h3.24m-3.24 9.582h3.24m231.7-134.3v-5.627m-15.69 5.627v-3.428m-15.69 3.428v-3.428m-15.69 3.428v-3.428m-15.6 3.428v-3.428m-15.69 3.428v-5.627m-15.69 5.627v-3.428m-15.6 3.428v-3.428m-15.69 3.428v-3.428m-15.69 3.428v-3.428m-15.6 3.428v-5.627m-15.69 5.627v-3.428m-15.69 3.428v-3.428m-15.69 3.428v-3.428m-15.6 3.428v-3.428" stroke-width=".1875"/>
   <path d="m60 10h640v400h-640zm319.5 400v-400m-319.5 199.5h640" stroke-width="2"/>
   <path d="m142.5 10v5m-25-5v5m-13-5v10m50-10v10m-63-10v5m76-5v5m-38-5v14.923663m513-14.847326v5m-25-5v5m-13-5v10m50-10v10m-63-10v5m76-5v5m-38-5v14.923663m-87-14.923663v5m-25-5v5m-13-5v10m50-10v10m-63-10v5m76-5v5m-38-5v14.923663m-87-14.923663v5m-25-5v5m-13-5v10m50-10v10m-63-10v5m76-5v5m-38-5v14.923663m-87-14.923663v5m-25-5v5m-13-5v10m50-10v10m-63-10v5m76-5v5m-38-5v14.923663m-87-15v5m-25-5v5m-13-5v10m50-10v10m-63-10v5m76-5v5m-38-5v14.923663m413 385v-5m-25 5v-5m-13 5v-10m50 10v-10m-63 10v-5m76 5v-5m-38 5v-14.923663m-87 14.923663v-5m-25 5v-5m-13 5v-10m50 10v-10m-63 10v-5m76 5v-5m-38 5v-14.923663m-87 14.923663v-5m-25 5v-5m-13 5v-10m50 10v-10m-63 10v-5m76 5v-5m-38 5v-14.923663m-87 14.923663v-5m-25 5v-5m-13 5v-10m50 10v-10m-63 10v-5m76 5v-5m-38 5v-14.923663m-87 15v-5m-25 5v-5m-13 5v-10m50 10v-10m-63 10v-5m76 5v-5m-38 5v-14.923663m-87 14.923663v-5m-25 5v-5m-13 5v-10m50 10v-10m-63 10v-5m76 5v-5m-38 5v-14.923663m569.5-331.326337h-5m5-23h-5m5 11.75h-10m10 192.25h-5m5-23h-5m5 11.75h-10m10-124.75h-5m5-23h-5m5 11.75h-10m10 56.25h-5m5-23h-5m5 11.75h-10m10 56.25h-5m5-23h-5m5 11.75h-10m10 102.25h-5m5-23h-5m5 11.75h-10m10 56.25h-5m5-23h-5m5 11.75h-10m10 56h-5m5-23h-5m5 11.75h-10m-629 11.25h5m-5-23h5m-5 11.75h10m-10-304.5h5m-5-23h5m-5 11.75h10m-10 192.25h5m-5-23h5m-5 11.75h10m-10-124.75h5m-5-23h5m-5 11.75h10m-10 56.25h5m-5-23h5m-5 11.75h10m-10 56.25h5m-5-23h5m-5 11.75h10m-10 102.25h5m-5-23h5m-5 11.75h10m-10 56.25h5m-5-23h5m-5 11.75h10"/>
   <path d="m479.5 410v-335.5m220.5 181h-640m640-136h-640m640-90h-640m0 360h640m-640-44h640m0-45h-640m640-136h-640m0-90h640m-520.5 335.5v-400m300 19.5v-19.5m100 400v-400m-300 400.00143v-400.00143m-200 400v-400m600 400v-400"/>
  </g>
  <path d="m514.5 64h35m-470 325.5c36.5 0 63.5-360 100-360s63.5 360 100 360 63.5-360 100-360 63.5 360 100 360 63.5-360 100-360 63.5 360 100 360" stroke="#204a87" stroke-dasharray="12, 2" stroke-width="2"/>
  <path d="m514.5 44h35m-470 165.5c15.875 90 31.75 180 50 180 36.5 0 63.5-360 100-360s63.5 360 100 360 63.5-360 100-360 63.5 360 100 360 63.5-360 100-360c18.25 0 34.125 90 50 180" stroke="#a40000" stroke-width="2"/>
 </g>
</svg>
