<svg xmlns="http://www.w3.org/2000/svg" viewBox="0 0 307.03509 315.31675"><title>spikey</title><g data-name="Layer 1"><path d="M307.035 206.402l-65.29 13.883 6.638 64.934-61.158-26.24-33.707 56.337-33.716-56.345-61.175 26.222 6.64-64.917L0 206.36l44.462-48.71L.017 108.923 65.29 95.04l-6.638-64.934 61.183 26.24L153.518 0l33.715 56.345 61.175-26.222-6.64 64.925 65.267 13.908-44.454 48.71 44.455 48.745" fill="#f16850"/><path d="M153.518 98.417l-33.69-42.072-61.16-26.247L95.074 78.12l58.445 20.297" fill="#fd694f"/><path d="M65.29 95.032L0 108.922l44.454 48.728 52.32-18.96L65.29 95.04" fill="#ff3413"/><path d="M95.073 78.12L58.67 30.098l6.62 64.934 31.484 43.648-1.7-60.56" fill="#dc1d23"/><path d="M187.233 56.345L153.518 0l-33.69 56.345 33.69 42.072 33.715-42.072" fill="#ff9281"/><path d="M262.58 157.667l44.455-48.71-65.274-13.9-31.5 43.632 52.32 18.977" fill="#ff8b79"/><path d="M210.26 138.69l31.5-43.634 6.64-64.942-36.43 47.997-1.71 60.58" fill="#fd694f"/><path d="M211.962 78.12l36.446-48.006-61.175 26.223-33.715 42.072 58.444-20.3" fill="#ef5240"/><path d="M248.084 186.71l58.95 19.667-44.453-48.71-52.32-19.003 37.824 48.022" fill="#ff482c"/><path d="M96.774 138.69l-52.32 18.96L0 206.36l58.95-19.666 37.824-48.005" fill="#ec2101"/><path d="M153.518 253.81v61.507l33.69-56.345 1.378-55.134-35.068 49.972" fill="#d21c22"/><path d="M248.084 186.71l-59.498 17.128 53.158 16.447 65.29-13.89-58.958-19.684" fill="#c90901"/><path d="M187.208 258.988l61.175 26.223-6.64-64.925-53.157-16.447-1.378 55.142" fill="#ec2101"/><path d="M58.95 186.71L0 206.353l65.274 13.908 53.175-16.43-59.5-17.136" fill="#b6171e"/><path d="M118.45 203.838l1.352 55.134 33.716 56.345V253.81l-35.07-49.972" fill="#b4151b"/><path d="M65.274 220.27l-6.64 64.924 61.16-26.222-1.345-55.134-53.176 16.43" fill="#d21c22"/><path d="M210.26 138.69l1.702-60.58-58.444 20.315v58.943l56.743-18.67" fill="#e63320"/><path d="M153.518 98.417L95.073 78.12l1.7 60.577 56.745 18.67v-58.95" fill="#ff4527"/><path d="M118.45 203.838l35.068 49.972 35.068-49.972-35.068-46.47-35.07 46.47" fill="#ff9281"/><path d="M153.518 157.36l35.068 46.47 59.498-17.128-37.823-48.022-56.742 18.67" fill="#fd684d"/><path d="M96.774 138.69L58.95 186.71l59.5 17.128 35.068-46.47-56.744-18.67" fill="#fd745c"/></g></svg>